<svg width="153" height="28" viewBox="0 0 153 28" fill="none" xmlns="http://www.w3.org/2000/svg">
<g clip-path="url(#clip0_318_5133)">
<path fill-rule="evenodd" clip-rule="evenodd" d="M2.62617 24.6098C-0.875435 21.1374 -0.875379 15.5076 2.62627 12.0353L12.1369 2.60428C15.0971 -0.331068 19.6119 -0.78504 23.053 1.24237C24.1173 1.86946 24.108 3.30801 23.2326 4.1761C22.3572 5.0442 20.9282 4.96949 19.7399 4.62486C18.2183 4.18355 16.5072 4.55791 15.3071 5.74793L5.79646 15.1789C4.04563 16.9151 4.04561 19.73 5.79641 21.4662C7.54724 23.2024 10.3859 23.2024 12.1368 21.4662L31.1579 2.6044C34.6596 -0.867948 40.3369 -0.867962 43.8386 2.60436L53.3494 12.0353C56.8512 15.5076 56.8512 21.1375 53.3494 24.6098C49.8477 28.0822 44.1704 28.0822 40.6687 24.6098L37.4984 21.4662L33.5357 25.3957C30.5756 28.3311 26.0607 28.785 22.6196 26.7576C21.5553 26.1305 21.5646 24.692 22.44 23.8239C23.3155 22.9558 24.7444 23.0305 25.9327 23.3751C27.4543 23.8165 29.1654 23.4421 30.3655 22.2521L34.4415 18.2102C36.1298 16.5361 38.8671 16.5361 40.5554 18.2102L43.8389 21.4662C45.5897 23.2023 48.4282 23.2023 50.1793 21.4662C51.93 19.73 51.93 16.9151 50.1793 15.1789L40.6685 5.74803C38.9176 4.01187 36.079 4.01188 34.3281 5.74803L15.307 24.6099C11.8053 28.0823 6.12784 28.0823 2.62617 24.6098Z" fill="#9C9C9B"/>
<path d="M91.7898 5.03992C89.5862 5.03992 87.9172 5.829 86.8154 7.40718C85.8475 5.829 84.3115 5.03992 82.2754 5.03992C80.1721 5.03992 78.6365 5.76325 77.635 7.24282V5.50024H73.3281V21.9396H77.635V12.7007C77.635 10.3005 78.8702 8.98535 80.7729 8.98535C82.5422 8.98535 83.5773 10.1362 83.5773 12.1088V21.9396H87.8837V12.7007C87.8837 10.3005 89.019 8.98535 90.9884 8.98535C92.7577 8.98535 93.7928 10.1362 93.7928 12.1088V21.9396H98.0992V11.8129C98.0992 7.70309 95.6288 5.03992 91.7898 5.03992Z" fill="#9C9C9B"/>
<path d="M114.109 7.44008C112.807 5.829 111.004 5.03992 108.667 5.03992C106.431 5.03992 104.528 5.89476 102.926 7.57158C101.357 9.24841 100.555 11.2869 100.555 13.7199C100.555 16.1529 101.357 18.2243 102.926 19.9012C104.528 21.5779 106.431 22.3999 108.667 22.3999C111.004 22.3999 112.807 21.6108 114.109 19.9998V21.9396H118.416V5.50024H114.109V7.44008ZM106.164 17.0736C105.296 16.1858 104.862 15.0679 104.862 13.7199C104.862 12.3719 105.296 11.254 106.164 10.3992C107.032 9.51142 108.133 9.084 109.469 9.084C110.804 9.084 111.906 9.51142 112.774 10.3992C113.675 11.254 114.109 12.3719 114.109 13.7199C114.109 15.0679 113.675 16.1858 112.774 17.0736C111.906 17.9284 110.804 18.3558 109.469 18.3558C108.133 18.3558 107.032 17.9284 106.164 17.0736Z" fill="#9C9C9B"/>
<path d="M134.306 8.32782V5.50024H121.787V9.47858H128.497L121.453 19.1121V21.9396H134.64V17.9613H127.228L134.306 8.32782Z" fill="#9C9C9B"/>
<path d="M152.646 15.4625C152.747 14.8378 152.813 14.2788 152.813 13.7199C152.813 11.254 152.012 9.21551 150.41 7.53868C148.841 5.8619 146.804 5.03992 144.367 5.03992C141.796 5.03992 139.66 5.8619 138.024 7.53868C136.388 9.18266 135.554 11.254 135.554 13.7199C135.554 16.2187 136.388 18.2901 138.058 19.934C139.727 21.5779 141.93 22.3999 144.701 22.3999C147.906 22.3999 150.343 21.2163 151.979 18.8819L148.507 16.9092C147.672 17.9942 146.404 18.5531 144.768 18.5531C142.197 18.5531 140.628 17.5338 140.061 15.4625H152.646ZM139.994 12.1746C140.494 10.0704 142.064 8.85384 144.367 8.85384C146.337 8.85384 148.006 9.93884 148.507 12.1746H139.994Z" fill="#9C9C9B"/>
</g>
<defs>
<clipPath id="clip0_318_5133">
<rect width="153" height="28" fill="white"/>
</clipPath>
</defs>
</svg>
