<svg width="112" height="30" viewBox="0 0 112 30" fill="none" xmlns="http://www.w3.org/2000/svg">
<mask id="mask0_318_5163" style="mask-type:luminance" maskUnits="userSpaceOnUse" x="0" y="0" width="112" height="30">
<path d="M111.974 0.465454H0.169922V29.5345H111.974V0.465454Z" fill="white"/>
</mask>
<g mask="url(#mask0_318_5163)">
<path d="M29.4146 22.5094V0.526001H32.7843V9.18614C33.8675 7.61157 35.432 6.76372 37.5983 6.76372C39.4035 6.76372 40.8477 7.30877 41.8105 8.39886C42.8334 9.48894 43.3148 11.003 43.3148 12.9409V22.5094H39.9451V13.4254C39.9451 10.9424 38.8619 9.67063 36.6355 9.67063C35.5523 9.67063 34.5895 10.034 33.9276 10.7002C33.2055 11.3663 32.8445 12.3353 32.8445 13.5465V22.5094H29.4146Z" fill="#9C9C9B"/>
<path d="M59.4414 20.632C57.9371 22.146 56.0115 22.8727 53.7249 22.8727C51.4382 22.8727 49.5127 22.0855 48.0083 20.5715C46.5039 19.0574 45.7217 17.1195 45.7217 14.7576C45.7217 12.3958 46.5039 10.4579 48.0083 9.00441C49.5127 7.4904 51.4382 6.76367 53.7249 6.76367C56.0115 6.76367 57.9371 7.4904 59.4414 9.00441C60.9458 10.5184 61.7281 12.4564 61.7281 14.7576C61.6679 17.1801 60.9458 19.0574 59.4414 20.632ZM50.4755 18.6941C51.2577 19.663 52.3409 20.1475 53.7249 20.1475C55.0487 20.1475 56.1318 19.663 56.9743 18.6941C57.7565 17.7251 58.1778 16.4533 58.1778 14.8182C58.1778 13.2436 57.7565 11.9113 56.9743 11.0029C56.1318 10.0339 55.0487 9.54945 53.7249 9.54945C52.401 9.54945 51.3179 10.0339 50.4755 10.9423C49.6932 11.9113 49.272 13.1831 49.272 14.8182C49.272 16.4533 49.6932 17.7251 50.4755 18.6941Z" fill="#9C9C9B"/>
<path d="M69.5511 22.8728C66.4221 22.8728 64.8575 21.1771 64.8575 17.7858V10.034H62.5107V7.12712H64.9779L65.7602 2.58508H68.2875V7.12712H74.3651V10.034H68.2875V17.7252C68.2875 19.1181 68.829 19.8448 69.852 19.8448C70.8148 19.8448 71.6572 18.9364 72.4395 17.1801L75.0872 18.5125C73.7633 21.4194 71.9581 22.8728 69.5511 22.8728Z" fill="#9C9C9B"/>
<path d="M76.1703 29.5345C74.6659 29.5345 73.4022 29.1105 72.4395 28.2627L73.7031 25.598C74.3049 26.3248 74.9668 26.6881 75.6889 26.6881C76.6517 26.6881 77.1331 26.0825 77.1331 24.8713V7.1271H80.5028V24.8713C80.5028 26.5064 80.0816 27.7176 79.2993 28.4444C78.4569 29.1711 77.4339 29.5345 76.1703 29.5345ZM78.8179 4.523C78.2764 4.523 77.7348 4.34132 77.3136 3.97796C77.133 3.79628 76.9525 3.55404 76.8322 3.31179C76.7118 3.06955 76.6517 2.76675 76.7118 2.52451C76.7118 2.22171 76.772 1.97946 76.8322 1.73722C76.9525 1.49498 77.0729 1.25274 77.3136 1.07106C77.7348 0.707696 78.2764 0.465454 78.8179 0.465454C79.3595 0.465454 79.9011 0.647135 80.3223 1.07106C80.5028 1.25274 80.6833 1.49498 80.8037 1.73722C80.924 1.97946 80.9842 2.28227 80.924 2.52451C80.924 2.76675 80.8639 3.06955 80.7435 3.31179C80.6232 3.55404 80.5028 3.79628 80.2621 3.97796C80.0816 4.15964 79.8409 4.34132 79.6002 4.40188C79.3595 4.523 79.0586 4.58356 78.8179 4.523Z" fill="#9C9C9B"/>
<path d="M88.9272 22.8727C87.1822 22.8727 85.7982 22.4488 84.715 21.5404C83.6319 20.6926 83.0903 19.4814 83.0903 18.0279C83.0903 16.6956 83.6319 15.5449 84.7752 14.576C85.9185 13.607 87.3025 13.1831 88.9874 13.1831C90.7325 13.1831 92.1766 13.7281 93.3801 14.8788V13.0014C93.3801 11.9113 93.0793 11.0635 92.5377 10.4579C91.9961 9.85225 91.2139 9.54945 90.1909 9.54945C88.0848 9.54945 86.8211 10.6395 86.3397 12.7592L83.2107 12.093C83.6319 10.4579 84.4743 9.12553 85.6778 8.21712C86.8813 7.30872 88.4458 6.76367 90.3112 6.76367C92.297 6.76367 93.9217 7.30872 95.065 8.33824C96.2083 9.42833 96.8101 10.9423 96.8101 13.0014V22.4488H93.5005V20.5109C92.4174 22.0855 90.913 22.8727 88.9272 22.8727ZM89.5892 20.3292C91.0935 20.3292 92.3572 19.5419 93.4403 18.0279V17.5434C92.4173 16.2717 91.0935 15.6661 89.5892 15.6661C88.6865 15.6661 88.0246 15.9083 87.4229 16.3322C87.1822 16.5139 86.9415 16.7561 86.8211 17.0589C86.7008 17.3617 86.5804 17.6645 86.6406 17.9674C86.6406 18.2702 86.7008 18.6335 86.8211 18.9363C86.9415 19.2391 87.1822 19.4814 87.4229 19.663C87.9644 20.1475 88.6865 20.3292 89.5892 20.3292Z" fill="#9C9C9B"/>
<path d="M100.12 22.5095V7.12713H103.429V9.79179C104.272 7.85385 105.716 6.88489 107.762 6.88489C108.965 6.88489 109.988 7.30881 110.77 8.0961C111.553 8.88338 111.974 9.97347 111.974 11.3058C111.974 12.0931 111.854 12.9409 111.553 13.6677L108.424 13.3649C108.484 12.9409 108.544 12.517 108.544 12.0931C108.544 10.5185 107.882 9.73123 106.618 9.73123C105.716 9.73123 104.994 10.2157 104.392 11.1241C103.79 12.0931 103.489 13.3043 103.489 14.8183V22.4489H100.12V22.5095Z" fill="#9C9C9B"/>
<path d="M8.23328 9.48896C10.7606 8.09607 14.2507 6.15813 14.2507 0.465454H10.0385C10.0385 3.6146 8.53415 4.46244 6.18735 5.79477C3.66003 7.24822 0.169922 9.18616 0.169922 14.8183H4.38212C4.38212 11.6691 5.88648 10.7607 8.23328 9.48896Z" fill="#9C9C9B"/>
<path d="M15.454 8.21704C15.454 11.3662 13.9497 12.214 11.6029 13.5464C9.07556 14.9392 5.58545 16.8772 5.58545 22.5699H9.79765C9.79765 19.4207 11.302 18.5729 13.6488 17.2405C16.1761 15.8477 19.6662 13.9097 19.6662 8.21704H15.454Z" fill="#9C9C9B"/>
</g>
</svg>
