<svg xmlns="http://www.w3.org/2000/svg" width="194" height="30"><path d="M 23.445 19.236 L 18.67 19.246 C 17.956 19.247 17.341 19.749 17.195 20.449 L 16.625 23.235 C 16.523 23.728 16.088 24.08 15.585 24.077 C 14.377 24.071 13.709 24.038 12.112 24.038 C 8.492 24.038 4.665 21.627 4.665 17.464 C 4.665 13.605 8.072 10.783 12.1 10.783 L 17.55 10.772 C 18.263 10.771 18.879 10.269 19.024 9.569 L 19.605 6.795 C 19.707 6.303 20.14 5.951 20.642 5.952 C 21.655 5.955 23.229 5.962 23.444 5.98 C 27.249 5.98 30.88 8.58 30.88 12.646 C 30.88 16.372 27.629 19.236 23.445 19.236 Z M 23.483 1.85 C 23.145 1.834 21.633 1.825 20.552 1.821 C 19.829 1.818 19.204 2.326 19.059 3.036 L 18.483 5.781 C 18.382 6.274 17.949 6.629 17.446 6.631 L 12.06 6.654 C 6.067 6.654 0.566 11.144 0.566 17.43 C 0.566 23.08 5.284 28.162 12.062 28.162 C 12.412 28.18 14.379 28.176 15.691 28.18 C 16.415 28.182 17.04 27.672 17.185 26.962 L 17.757 24.205 C 17.858 23.709 18.294 23.353 18.799 23.353 L 23.485 23.366 C 30.104 23.366 34.979 18.284 34.979 12.58 C 34.979 6.359 29.595 1.85 23.483 1.85 Z" fill="rgb(156,156,155)"></path><path d="M 132.527 20.7 C 130.548 20.7 128.418 19.135 128.418 15.7 L 128.418 15.546 C 128.418 12.264 130.598 10.546 132.752 10.546 C 135.664 10.546 136.917 13.119 136.917 15.51 C 136.917 19.341 134.587 20.7 132.527 20.7 Z M 132.903 7.607 C 131.036 7.607 129.329 8.534 128.468 9.436 L 128.12 8.07 L 125.513 8.07 L 125.513 29.421 L 128.417 29.421 L 128.417 21.957 L 128.51 21.913 C 129.372 22.816 131.027 23.565 132.677 23.565 C 136.58 23.565 140.196 21.032 140.196 15.472 C 140.196 10.4 136.706 7.607 132.903 7.607 Z" fill="rgb(156,156,155)"></path><path d="M 62.95 23.177 L 66.016 23.177 L 66.016 0.58 L 62.95 0.58 Z" fill="rgb(156,156,155)"></path><path d="M 52.758 20.59 C 49.724 20.59 47.993 18.229 47.993 15.587 C 47.993 12.55 49.966 10.509 52.758 10.509 C 54.172 10.509 55.143 11.08 56.068 11.643 L 57.5 9.041 C 56.497 8.384 54.716 7.607 52.951 7.607 C 48.178 7.607 44.788 10.963 44.788 15.587 C 44.788 20.136 48.255 23.567 52.951 23.567 C 54.952 23.567 56.389 22.727 57.5 22.092 L 56.067 19.534 C 55.145 20.093 53.871 20.59 52.758 20.59 Z" fill="rgb(156,156,155)"></path><path d="M 83.386 15.7 C 83.386 19.135 81.257 20.7 79.277 20.7 C 77.217 20.7 74.888 19.341 74.888 15.509 C 74.888 13.119 76.139 10.546 79.052 10.546 C 81.206 10.546 83.386 12.264 83.386 15.546 Z M 83.684 8.069 L 83.337 9.436 C 82.475 8.534 80.768 7.607 78.902 7.607 C 75.099 7.607 71.608 10.601 71.608 15.472 C 71.608 20.544 75.099 23.565 78.902 23.565 C 80.768 23.565 82.475 22.638 83.337 21.735 L 83.684 23.102 L 86.291 23.102 L 86.291 8.069 Z" fill="rgb(156,156,155)"></path><path d="M 97.207 16.926 C 99.332 17.48 100.223 17.89 100.223 18.978 C 100.223 19.812 99.471 20.653 97.793 20.653 C 96.222 20.653 94.951 20.088 93.773 19.429 L 92.366 21.987 C 93.458 22.665 95.779 23.556 97.793 23.556 C 101.163 23.556 103.151 21.253 103.151 18.978 C 103.151 15.028 99.269 14.392 98.234 14.062 C 96.041 13.49 95.522 13.052 95.522 12.131 C 95.522 11.2 96.359 10.509 97.91 10.509 C 99.302 10.509 100.318 10.935 101.278 11.412 L 102.71 8.809 C 101.307 8.192 99.709 7.607 97.91 7.607 C 94.603 7.607 92.594 9.938 92.594 12.131 C 92.594 15.581 95.549 16.476 97.207 16.926 Z" fill="rgb(156,156,155)"></path><path d="M 113.61 16.926 C 115.735 17.48 116.626 17.89 116.626 18.978 C 116.626 19.812 115.874 20.653 114.196 20.653 C 112.625 20.653 111.353 20.088 110.176 19.429 L 108.769 21.987 C 109.861 22.665 112.182 23.556 114.196 23.556 C 117.566 23.556 119.554 21.253 119.554 18.978 C 119.554 15.028 115.672 14.392 114.637 14.062 C 112.444 13.49 111.925 13.052 111.925 12.131 C 111.925 11.2 112.762 10.509 114.313 10.509 C 115.705 10.509 116.72 10.935 117.681 11.412 L 119.113 8.809 C 117.71 8.192 116.112 7.607 114.313 7.607 C 111.006 7.607 108.997 9.938 108.997 12.131 C 108.997 15.581 111.952 16.476 113.61 16.926 Z" fill="rgb(156,156,155)"></path><path d="M 157.003 15.7 C 157.003 19.135 154.872 20.7 152.893 20.7 C 150.833 20.7 148.504 19.341 148.504 15.509 C 148.504 13.119 149.756 10.546 152.669 10.546 C 154.823 10.546 157.003 12.264 157.003 15.546 Z M 157.3 8.069 L 156.953 9.436 C 156.092 8.534 154.384 7.607 152.519 7.607 C 148.715 7.607 145.225 10.601 145.225 15.472 C 145.225 20.544 148.715 23.565 152.519 23.565 C 154.384 23.565 156.092 22.638 156.953 21.735 L 157.3 23.102 L 159.909 23.102 L 159.909 8.069 Z" fill="rgb(156,156,155)"></path><path d="M 170.823 16.926 C 172.948 17.48 173.838 17.89 173.838 18.978 C 173.838 19.812 173.087 20.653 171.409 20.653 C 169.838 20.653 168.566 20.088 167.39 19.429 L 165.981 21.987 C 167.074 22.665 169.396 23.556 171.409 23.556 C 174.779 23.556 176.767 21.253 176.767 18.978 C 176.767 15.028 172.886 14.392 171.85 14.062 C 169.657 13.49 169.138 13.052 169.138 12.131 C 169.138 11.2 169.976 10.509 171.526 10.509 C 172.918 10.509 173.933 10.935 174.893 11.412 L 176.327 8.809 C 174.923 8.192 173.325 7.607 171.526 7.607 C 168.219 7.607 166.21 9.938 166.21 12.131 C 166.21 15.581 169.166 16.476 170.823 16.926 Z" fill="rgb(156,156,155)"></path><path d="M 187.227 16.926 C 189.352 17.48 190.242 17.89 190.242 18.978 C 190.242 19.812 189.491 20.653 187.813 20.653 C 186.242 20.653 184.97 20.088 183.793 19.429 L 182.385 21.987 C 183.477 22.665 185.8 23.556 187.813 23.556 C 191.181 23.556 193.17 21.253 193.17 18.978 C 193.17 15.028 189.288 14.392 188.254 14.062 C 186.061 13.49 185.541 13.052 185.541 12.131 C 185.541 11.2 186.378 10.509 187.93 10.509 C 189.322 10.509 190.337 10.935 191.297 11.412 L 192.73 8.809 C 191.327 8.192 189.729 7.607 187.93 7.607 C 184.623 7.607 182.614 9.938 182.614 12.131 C 182.614 15.581 185.568 16.476 187.227 16.926 Z" fill="rgb(156,156,155)"></path></svg>