<svg width="147" height="30" viewBox="0 0 147 30" fill="none" xmlns="http://www.w3.org/2000/svg">
<path d="M144.337 6.57106L139.923 4.0366L135.445 1.46374C132.486 -0.238695 128.786 1.89895 128.786 5.32943V5.90544C128.786 6.22545 128.952 6.51986 129.232 6.67346L131.312 7.86389C131.886 8.1967 132.6 7.77429 132.6 7.10867V5.73904C132.6 5.06062 133.328 4.63822 133.914 4.97102L137.997 7.32628L142.066 9.66873C142.653 10.0015 142.653 10.8592 142.066 11.192L137.997 13.5344L133.914 15.8897C133.328 16.2225 132.6 15.8001 132.6 15.1217V14.4432C132.6 11.0128 128.901 8.86231 125.941 10.5775L121.463 13.1504L117.049 15.6849C114.077 17.4001 114.077 21.7138 117.049 23.429L121.463 25.9635L125.941 28.5364C128.901 30.2388 132.6 28.1011 132.6 24.6707V24.0947C132.6 23.7746 132.435 23.4802 132.154 23.3266L130.074 22.1362C129.5 21.8034 128.786 22.2258 128.786 22.8914V24.2611C128.786 24.9395 128.059 25.3619 127.472 25.0291L123.39 22.6738L119.32 20.3314C118.733 19.9986 118.733 19.1409 119.32 18.8081L123.39 16.4657L127.472 14.1104C128.059 13.7776 128.786 14.2 128.786 14.8784V15.5569C128.786 18.9873 132.486 21.1378 135.445 19.4226L139.923 16.8497L144.337 14.3152C147.31 12.5872 147.31 8.2863 144.337 6.57106Z" fill="#9C9C9B"/>
<path d="M115.378 7.41589L105.044 28.8308H100.758L104.623 20.8306L98.5381 7.41589H102.939L106.843 16.4017L111.104 7.41589H115.378Z" fill="#9C9C9B"/>
<path d="M12.0557 15.0193C12.0557 12.4592 10.2059 10.6672 7.93509 10.6672C5.66428 10.6672 3.81446 12.4976 3.81446 15.0193C3.81446 17.5153 5.66428 19.3714 7.93509 19.3714C10.2059 19.3714 12.0557 17.5793 12.0557 15.0193ZM12.094 22.6226V20.6514C10.9714 22.021 9.30013 22.8659 7.30998 22.8659C3.15107 22.8659 0 19.525 0 15.0193C0 10.552 3.27865 7.14709 7.39928 7.14709C9.33841 7.14709 10.9714 8.00472 12.094 9.33595V7.4159H15.8192V22.6226H12.094Z" fill="#9C9C9B"/>
<path d="M33.9345 19.2434C32.6332 19.2434 32.2633 18.7569 32.2633 17.4769V10.7312H34.6617V7.41589H32.2633V3.7038H28.4488V7.41589H23.5245V5.90545C23.5245 4.62542 24.0092 4.13901 25.3488 4.13901H26.1908V1.19495H24.3537C21.2026 1.19495 19.71 2.23177 19.71 5.39344V7.42869H17.5923V10.7312H19.71V22.6226H23.5245V10.7312H28.4488V18.1809C28.4488 21.2786 29.6353 22.6226 32.7225 22.6226H34.6872V19.2434H33.9345Z" fill="#9C9C9B"/>
<path d="M47.636 13.6496C47.368 11.6784 45.7606 10.488 43.8725 10.488C41.9972 10.488 40.4408 11.64 40.0581 13.6496H47.636ZM40.0198 16.0177C40.2877 18.2705 41.8951 19.5506 43.9363 19.5506C45.5437 19.5506 46.7812 18.7953 47.5084 17.5793H51.4249C50.5191 20.805 47.636 22.8658 43.847 22.8658C39.2671 22.8658 36.0522 19.6402 36.0522 15.0449C36.0522 10.4496 39.4457 7.13428 43.9363 7.13428C48.4524 7.13428 51.7311 10.4752 51.7311 15.0449C51.7311 15.3777 51.7056 15.7105 51.6418 16.0177H40.0198Z" fill="#9C9C9B"/>
<path d="M76.0213 15.0193C76.0213 12.5616 74.1715 10.6672 71.9007 10.6672C69.6298 10.6672 67.78 12.4976 67.78 15.0193C67.78 17.5153 69.6298 19.3714 71.9007 19.3714C74.1715 19.3714 76.0213 17.4897 76.0213 15.0193ZM64.0166 28.8308V7.41589H67.7418V9.38713C68.8644 7.9919 70.5356 7.13428 72.5258 7.13428C76.6209 7.13428 79.8358 10.5136 79.8358 14.9809C79.8358 19.4482 76.5571 22.853 72.4365 22.853C70.5229 22.853 68.9537 22.0978 67.8566 20.8178V28.818H64.0166V28.8308Z" fill="#9C9C9B"/>
<path d="M93.2691 15.0193C93.2691 12.4592 91.4193 10.6672 89.1485 10.6672C86.8777 10.6672 85.0278 12.4976 85.0278 15.0193C85.0278 17.5153 86.8777 19.3714 89.1485 19.3714C91.4193 19.3714 93.2691 17.5793 93.2691 15.0193ZM93.3074 22.6226V20.6514C92.1847 22.021 90.5135 22.8659 88.5234 22.8659C84.3645 22.8659 81.2134 19.525 81.2134 15.0193C81.2134 10.552 84.492 7.14709 88.6127 7.14709C90.5518 7.14709 92.1847 8.00472 93.3074 9.33595V7.4159H97.0325V22.6226H93.3074Z" fill="#9C9C9B"/>
<path d="M57.2936 8.90072C57.2936 8.90072 58.2376 7.13428 60.5722 7.13428C61.5673 7.13428 62.2052 7.47989 62.2052 7.47989V11.3584C62.2052 11.3584 60.8019 10.488 59.5134 10.6672C58.2249 10.8464 57.4084 12.024 57.4084 13.6112V22.6098H53.5557V7.41589H57.2808V8.90072H57.2936Z" fill="#9C9C9B"/>
</svg>
