<svg width="138" height="28" viewBox="0 0 138 28" fill="none" xmlns="http://www.w3.org/2000/svg">
<path d="M52.4721 21.2033C52.5734 22.1638 53.2823 23.3264 54.5989 23.3264H55.3585C55.6623 23.3264 55.9155 23.0737 55.9155 22.7704V6.03838C55.9155 5.73508 55.6623 5.53288 55.3585 5.53288H52.9785C52.6747 5.53288 52.4721 5.73508 52.4215 6.03838V7.40322C50.953 5.63398 48.6743 4.87573 46.3956 4.87573C41.18 4.87573 36.9771 9.07136 36.9771 14.278C37.0277 19.4846 41.2306 23.6802 46.4463 23.6802C48.725 23.6802 51.2062 22.8209 52.4721 21.2033ZM46.4463 20.3945C43.1548 20.3945 40.471 17.6648 40.471 14.278C40.471 10.8912 43.1548 8.16147 46.4463 8.16147C49.7377 8.16147 52.4215 10.8912 52.4215 14.278C52.4215 17.6648 49.7377 20.3945 46.4463 20.3945Z" fill="#9C9C9B"/>
<path d="M90.9567 21.2033C91.0579 22.1638 91.7669 23.3264 93.0834 23.3264H93.843C94.1468 23.3264 94.4 23.0737 94.4 22.7704V6.03838C94.4 5.73508 94.1468 5.53288 93.843 5.53288H91.5137C91.2098 5.53288 91.0073 5.73508 90.9567 6.03838V7.40322C89.4882 5.63398 87.2095 4.87573 84.9308 4.87573C79.7151 4.87573 75.5122 9.07136 75.5122 14.278C75.5122 19.4846 79.7151 23.6802 84.9308 23.6802C87.2601 23.6802 89.7414 22.8209 90.9567 21.2033ZM84.9814 20.3945C81.69 20.3945 79.0062 17.6648 79.0062 14.278C79.0062 10.8912 81.69 8.16147 84.9814 8.16147C88.2729 8.16147 90.9567 10.8912 90.9567 14.278C90.9567 17.6648 88.2729 20.3945 84.9814 20.3945Z" fill="#9C9C9B"/>
<path d="M134.049 21.2033C134.151 22.1638 134.859 23.3264 136.176 23.3264H136.936C137.239 23.3264 137.493 23.0737 137.493 22.7704V6.03838C137.493 5.73508 137.239 5.53288 136.936 5.53288H134.556C134.252 5.53288 134.049 5.73508 133.999 6.03838V7.40322C132.53 5.63398 130.251 4.87573 127.973 4.87573C122.757 4.87573 118.554 9.07136 118.554 14.278C118.554 19.4846 122.757 23.6802 127.973 23.6802C130.302 23.6802 132.783 22.8209 134.049 21.2033ZM128.023 20.3945C124.732 20.3945 122.048 17.6648 122.048 14.278C122.048 10.8912 124.732 8.16147 128.023 8.16147C131.315 8.16147 133.999 10.8912 133.999 14.278C133.999 17.6648 131.315 20.3945 128.023 20.3945Z" fill="#9C9C9B"/>
<path d="M115.617 21.7593V13.1153C115.617 8.21201 112.528 4.92627 107.616 4.92627C105.287 4.92627 103.11 6.29111 102.654 7.45376C102.502 6.54386 102.046 5.58342 100.527 5.58342H99.7675C99.4636 5.58342 99.2104 5.83617 99.2104 6.13946V21.2538V22.8714V22.922C99.2104 23.2253 99.4636 23.4275 99.7675 23.4275H101.388H102.147C102.198 23.4275 102.198 23.4275 102.249 23.4275H102.299H102.35C102.35 23.4275 102.401 23.4275 102.401 23.3769C102.401 23.3769 102.401 23.3769 102.451 23.3769L102.502 23.3264L102.553 23.2758C102.603 23.1747 102.654 23.0736 102.654 22.9725V22.922V21.8604V21.5571V12.9637C102.654 10.3351 104.781 8.212 107.414 8.212C110.047 8.212 112.174 10.3351 112.174 12.9637V21.2538V22.8209V22.8714C112.174 23.1747 112.427 23.3769 112.731 23.3769H114.351H115.111C115.161 23.3769 115.161 23.3769 115.212 23.3769H115.263H115.313C115.313 23.3769 115.364 23.3769 115.364 23.3264C115.364 23.3264 115.364 23.3264 115.414 23.3264L115.465 23.2758L115.516 23.2253C115.566 23.1242 115.617 23.0231 115.617 22.922V22.8714V21.7593Z" fill="#9C9C9B"/>
<path d="M61.5362 18.7769C63.106 19.889 64.8277 20.3945 66.4987 20.3945C68.0685 20.3945 69.6889 19.5857 69.6889 18.1703C69.6889 16.2494 66.1443 15.9967 63.9162 15.2384C61.6882 14.4802 59.7639 12.9131 59.7639 10.3856C59.7639 6.49331 63.2073 4.92627 66.4481 4.92627C68.4736 4.92627 70.6004 5.58342 71.9676 6.54386C72.4233 6.89771 72.1701 7.30211 72.1701 7.30211L70.8535 9.17245C70.7016 9.37465 70.4484 9.57685 70.094 9.3241C69.7395 9.1219 68.4229 8.16145 66.4481 8.16145C64.4732 8.16145 63.3086 9.07135 63.3086 10.1834C63.3086 11.5483 64.8277 11.9527 66.6506 12.4076C69.7902 13.267 73.2335 14.278 73.2335 18.1198C73.2335 21.5571 70.0434 23.6297 66.4987 23.6297C63.8149 23.6297 61.5362 22.8714 59.612 21.456C59.2069 21.0516 59.5107 20.6978 59.5107 20.6978L60.8273 18.8275C61.0805 18.5747 61.3843 18.6758 61.5362 18.7769Z" fill="#9C9C9B"/>
<mask id="mask0_318_5176" style="mask-type:luminance" maskUnits="userSpaceOnUse" x="0" y="0" width="31" height="28">
<path d="M22.1908 6.79665C22.1908 10.3351 19.3044 13.2165 15.7598 13.2165C12.2152 13.2165 9.32882 10.3351 9.32882 6.79665C9.32882 3.25817 12.2152 0.376831 15.7598 0.376831C19.3551 0.376831 22.1908 3.20762 22.1908 6.79665ZM7.4046 14.7835C3.85997 14.7835 0.973633 17.6649 0.973633 21.2033C0.973633 24.7418 3.85997 27.6232 7.4046 27.6232C10.9492 27.6232 13.8356 24.7418 13.8356 21.2033C13.8356 17.6649 10.9999 14.7835 7.4046 14.7835ZM24.115 14.7835C20.5704 14.7835 17.684 17.6649 17.684 21.2033C17.684 24.7418 20.5704 27.6232 24.115 27.6232C27.6596 27.6232 30.5459 24.7418 30.5459 21.2033C30.5459 17.6649 27.7102 14.7835 24.115 14.7835Z" fill="white"/>
</mask>
<g mask="url(#mask0_318_5176)">
<path d="M15.7597 0.0734863C24.7225 0.0734863 31.9637 7.3021 31.9637 16.2494C31.9637 25.1967 24.7225 32.4253 15.7597 32.4253C6.79683 32.4253 -0.444336 25.1967 -0.444336 16.2494C-0.393698 7.3021 6.84747 0.0734863 15.7597 0.0734863Z" fill="#9C9C9B"/>
</g>
</svg>
