<svg xmlns="http://www.w3.org/2000/svg" width="22" height="24"><path d="M 6 9 L 6 6 L 14 6 L 14 9 Z M 19.814 23.936 L 17.3 21.416 C 16.592 21.795 15.803 21.995 15 22 C 14.011 22 13.044 21.707 12.222 21.157 C 11.4 20.608 10.759 19.827 10.381 18.913 C 10.002 18 9.903 16.995 10.096 16.025 C 10.289 15.055 10.765 14.164 11.464 13.465 C 12.164 12.765 13.055 12.289 14.024 12.096 C 14.994 11.903 16 12.002 16.913 12.381 C 17.827 12.759 18.608 13.4 19.157 14.222 C 19.707 15.044 20 16.011 20 17 C 19.995 17.803 19.795 18.592 19.416 19.3 L 21.936 21.819 Z M 17 17 C 17 16.604 16.883 16.218 16.663 15.889 C 16.443 15.56 16.131 15.304 15.765 15.152 C 15.4 15.001 14.998 14.961 14.61 15.038 C 14.222 15.116 13.865 15.306 13.586 15.586 C 13.306 15.865 13.116 16.222 13.038 16.61 C 12.961 16.998 13.001 17.4 13.152 17.765 C 13.304 18.131 13.56 18.443 13.889 18.663 C 14.218 18.883 14.604 19 15 19 C 15.53 19 16.039 18.789 16.414 18.414 C 16.789 18.039 17 17.53 17 17 Z M 8.079 21 L 3.5 21 C 3.367 21 3.24 20.947 3.146 20.854 C 3.053 20.76 3 20.633 3 20.5 L 3 3.5 C 3 3.367 3.053 3.24 3.146 3.146 C 3.24 3.053 3.367 3 3.5 3 L 17 3 L 17 9.262 C 18.095 9.544 19.118 10.055 20 10.762 L 20 0 L 3.5 0 C 2.572 0 1.681 0.369 1.025 1.025 C 0.369 1.681 0 2.572 0 3.5 L 0 20.5 C 0 21.428 0.369 22.319 1.025 22.975 C 1.681 23.631 2.572 24 3.5 24 L 11.13 24 C 9.861 23.294 8.806 22.257 8.079 21 Z" fill="rgb(241, 190, 4)"></path></svg>