<svg xmlns="http://www.w3.org/2000/svg" width="24" height="18"><path d="M 18.5 0 L 5.5 0 C 4.042 0.002 2.644 0.582 1.613 1.613 C 0.582 2.644 0.002 4.042 0 5.5 L 0 12.5 C 0.002 13.958 0.582 15.356 1.613 16.387 C 2.644 17.418 4.042 17.998 5.5 18 L 18.5 18 C 19.958 17.998 21.356 17.418 22.387 16.387 C 23.418 15.356 23.998 13.958 24 12.5 L 24 5.5 C 23.998 4.042 23.418 2.644 22.387 1.613 C 21.356 0.582 19.958 0.002 18.5 0 Z M 5.5 3 L 18.5 3 C 19.076 3 19.635 3.199 20.081 3.564 C 20.527 3.928 20.834 4.435 20.949 5 L 3.051 5 C 3.166 4.435 3.473 3.928 3.919 3.564 C 4.365 3.199 4.924 3 5.5 3 Z M 18.5 15 L 5.5 15 C 4.837 15 4.201 14.737 3.732 14.268 C 3.263 13.799 3 13.163 3 12.5 L 3 8 L 21 8 L 21 12.5 C 21 13.163 20.737 13.799 20.268 14.268 C 19.799 14.737 19.163 15 18.5 15 Z" fill="rgb(241, 190, 4)"></path></svg>