<svg xmlns="http://www.w3.org/2000/svg" width="24" height="24"><path d="M 18.5 24 L 17.5 24 C 17.102 24 16.721 23.842 16.439 23.561 C 16.158 23.279 16 22.898 16 22.5 C 16 22.102 16.158 21.721 16.439 21.439 C 16.721 21.158 17.102 21 17.5 21 L 18.5 21 C 19.163 21 19.799 20.737 20.268 20.268 C 20.737 19.799 21 19.163 21 18.5 L 21 17.5 C 21 17.102 21.158 16.721 21.439 16.439 C 21.721 16.158 22.102 16 22.5 16 C 22.898 16 23.279 16.158 23.561 16.439 C 23.842 16.721 24 17.102 24 17.5 L 24 18.5 C 23.998 19.958 23.418 21.356 22.387 22.387 C 21.356 23.418 19.958 23.998 18.5 24 Z M 24 6.5 L 24 5.5 C 23.998 4.042 23.418 2.644 22.387 1.613 C 21.356 0.582 19.958 0.002 18.5 0 L 17.5 0 C 17.102 0 16.721 0.158 16.439 0.439 C 16.158 0.721 16 1.102 16 1.5 C 16 1.898 16.158 2.279 16.439 2.561 C 16.721 2.842 17.102 3 17.5 3 L 18.5 3 C 19.163 3 19.799 3.263 20.268 3.732 C 20.737 4.201 21 4.837 21 5.5 L 21 6.5 C 21 6.898 21.158 7.279 21.439 7.561 C 21.721 7.842 22.102 8 22.5 8 C 22.898 8 23.279 7.842 23.561 7.561 C 23.842 7.279 24 6.898 24 6.5 Z M 8 22.5 C 8 22.102 7.842 21.721 7.561 21.439 C 7.279 21.158 6.898 21 6.5 21 L 5.5 21 C 4.837 21 4.201 20.737 3.732 20.268 C 3.263 19.799 3 19.163 3 18.5 L 3 17.5 C 3 17.102 2.842 16.721 2.561 16.439 C 2.279 16.158 1.898 16 1.5 16 C 1.102 16 0.721 16.158 0.439 16.439 C 0.158 16.721 0 17.102 0 17.5 L 0 18.5 C 0.002 19.958 0.582 21.356 1.613 22.387 C 2.644 23.418 4.042 23.998 5.5 24 L 6.5 24 C 6.898 24 7.279 23.842 7.561 23.561 C 7.842 23.279 8 22.898 8 22.5 Z M 3 6.5 L 3 5.5 C 3 4.837 3.263 4.201 3.732 3.732 C 4.201 3.263 4.837 3 5.5 3 L 6.5 3 C 6.898 3 7.279 2.842 7.561 2.561 C 7.842 2.279 8 1.898 8 1.5 C 8 1.102 7.842 0.721 7.561 0.439 C 7.279 0.158 6.898 0 6.5 0 L 5.5 0 C 4.042 0.002 2.644 0.582 1.613 1.613 C 0.582 2.644 0.002 4.042 0 5.5 L 0 6.5 C 0 6.898 0.158 7.279 0.439 7.561 C 0.721 7.842 1.102 8 1.5 8 C 1.898 8 2.279 7.842 2.561 7.561 C 2.842 7.279 3 6.898 3 6.5 Z M 16 12 C 16 11.209 15.765 10.435 15.326 9.778 C 14.886 9.12 14.262 8.607 13.531 8.304 C 12.8 8.002 11.996 7.923 11.22 8.077 C 10.444 8.231 9.731 8.612 9.172 9.172 C 8.612 9.731 8.231 10.444 8.077 11.22 C 7.923 11.996 8.002 12.8 8.304 13.531 C 8.607 14.262 9.12 14.886 9.778 15.326 C 10.435 15.765 11.209 16 12 16 C 13.061 16 14.078 15.579 14.828 14.828 C 15.579 14.078 16 13.061 16 12 Z" fill="rgb(241, 190, 4)"></path></svg>