<svg xmlns="http://www.w3.org/2000/svg" width="44" height="44"><path d="M 8 44 C 3.582 44 0 44 0 44 L 0 0 C 0 0 3.582 0 8 0 L 36 0 C 40.418 0 44 0 44 0 L 44 44 C 44 44 40.418 44 36 44 Z" fill="rgb(32,33,31)"></path><path d="M 27 31.375 C 28.16 31.375 29.273 30.914 30.094 30.094 C 30.914 29.273 31.375 28.16 31.375 27 C 31.375 25.84 30.914 24.727 30.094 23.906 C 29.273 23.086 28.16 22.625 27 22.625 L 23.25 22.625 C 23.168 22.624 23.086 22.64 23.01 22.671 C 22.934 22.702 22.864 22.748 22.806 22.806 C 22.748 22.864 22.702 22.934 22.671 23.01 C 22.64 23.086 22.624 23.168 22.625 23.25 L 22.625 27 C 22.626 28.16 23.088 29.272 23.908 30.092 C 24.728 30.912 25.84 31.374 27 31.375 Z" fill="rgb(241, 190, 4)"></path><path d="M 27 12.625 C 25.84 12.626 24.728 13.088 23.908 13.908 C 23.088 14.728 22.626 15.84 22.625 17 L 22.625 20.75 C 22.624 20.832 22.64 20.914 22.671 20.99 C 22.702 21.066 22.748 21.136 22.806 21.194 C 22.864 21.252 22.934 21.298 23.01 21.329 C 23.086 21.36 23.168 21.376 23.25 21.375 L 27 21.375 C 28.16 21.375 29.273 20.914 30.094 20.094 C 30.914 19.273 31.375 18.16 31.375 17 C 31.375 15.84 30.914 14.727 30.094 13.906 C 29.273 13.086 28.16 12.625 27 12.625 Z" fill="rgb(241, 190, 4)"></path><path d="M 17 31.375 C 18.16 31.374 19.272 30.912 20.092 30.092 C 20.912 29.272 21.374 28.16 21.375 27 L 21.375 23.25 C 21.376 23.168 21.36 23.086 21.329 23.01 C 21.298 22.934 21.252 22.864 21.194 22.806 C 21.136 22.748 21.066 22.702 20.99 22.671 C 20.914 22.64 20.832 22.624 20.75 22.625 L 17 22.625 C 15.84 22.625 14.727 23.086 13.906 23.906 C 13.086 24.727 12.625 25.84 12.625 27 C 12.625 28.16 13.086 29.273 13.906 30.094 C 14.727 30.914 15.84 31.375 17 31.375 Z" fill="rgb(241, 190, 4)"></path><path d="M 17 21.375 L 20.75 21.375 C 20.832 21.376 20.914 21.36 20.99 21.329 C 21.066 21.298 21.136 21.252 21.194 21.194 C 21.252 21.136 21.298 21.066 21.329 20.99 C 21.36 20.914 21.376 20.832 21.375 20.75 L 21.375 17 C 21.375 16.135 21.118 15.289 20.638 14.569 C 20.157 13.85 19.474 13.289 18.674 12.958 C 17.875 12.627 16.995 12.54 16.146 12.709 C 15.298 12.878 14.518 13.295 13.906 13.906 C 13.295 14.518 12.878 15.298 12.709 16.146 C 12.54 16.995 12.627 17.875 12.958 18.674 C 13.289 19.474 13.85 20.157 14.569 20.638 C 15.289 21.118 16.135 21.375 17 21.375 Z" fill="rgb(241, 190, 4)"></path></svg>